<?xml version="1.0" encoding="utf-8"?>
<!-- Generator: Adobe Illustrator 21.1.0, SVG Export Plug-In . SVG Version: 6.00 Build 0)  -->
<svg version="1.1" id="Camada_2" xmlns="http://www.w3.org/2000/svg" xmlns:xlink="http://www.w3.org/1999/xlink" x="0px" y="0px"
	 viewBox="0 0 145.3 144.7" style="enable-background:new 0 0 145.3 144.7;" xml:space="preserve">
<style type="text/css">
	.st0{fill:none;stroke:#5E2262;stroke-width:6;stroke-linecap:round;stroke-linejoin:round;stroke-miterlimit:10;}
</style>
<line class="st0" x1="25.8" y1="3.2" x2="25.8" y2="47.7"/>
<line class="st0" x1="48.1" y1="25.1" x2="3.6" y2="25.1"/>
<circle class="st0" cx="55.4" cy="80.5" r="23.9"/>
<circle class="st0" cx="98" cy="46.3" r="23.9"/>
<path class="st0" d="M36.2,94.6c0,0-9.5,2.3-16.9,11.6s-7.6,18.1-6.9,26.2s7.7,8.9,7.7,8.9h35.4"/>
<path class="st0" d="M74.8,94.6c0,0,9.5,2.3,16.9,11.6s7.6,18.1,6.9,26.2s-7.7,8.9-7.7,8.9H55.5"/>
<path class="st0" d="M117.3,60.7c0,0,9.5,2.3,16.9,11.6c7.5,9.3,7.6,18.1,6.9,26.2c-0.8,8.1-7.7,8.9-7.7,8.9H92.6"/>
</svg>
