<?xml version="1.0" encoding="utf-8"?>
<!-- Generator: Adobe Illustrator 21.1.0, SVG Export Plug-In . SVG Version: 6.00 Build 0)  -->
<svg version="1.1" xmlns="http://www.w3.org/2000/svg" xmlns:xlink="http://www.w3.org/1999/xlink" x="0px" y="0px"
	 viewBox="0 0 200 200" style="enable-background:new 0 0 200 200;" xml:space="preserve">
<style type="text/css">
	.st0{display:none;}
	.st1{display:inline;opacity:0.27;fill:#650164;}
	.st2{fill:none;stroke:#650164;stroke-width:6;stroke-miterlimit:10;}
	.st3{fill:none;stroke:#650164;stroke-width:6;stroke-linejoin:round;stroke-miterlimit:10;}
	.st4{fill:none;stroke:#650164;stroke-width:6;stroke-linecap:round;stroke-linejoin:round;stroke-miterlimit:10;}
	.st5{fill:#FFFFFF;stroke:#650164;stroke-width:6;stroke-linecap:round;stroke-linejoin:round;stroke-miterlimit:10;}
</style>
<g id="Camada_1" class="st0">
	<path class="st1" d="M144.9,90.9c7.8-7.8,14.6-14.7,21.4-21.4c6.2-6.2,13.2-7.6,20.5-4.5c7.6,3.3,13.1,10.9,12.1,18.9
		c-0.6,4.3-2.7,9-5.7,12.1c-14.6,15.3-29.7,30.1-44.8,45c-2.4,2.4-3.6,4.7-3.5,8.2c0.2,10.7,0.1,21.3,0.1,32
		c-0.1,11.1-6.7,17.9-17.7,17.9c-36.3,0.1-72.6,0.1-108.9,0c-10.8,0-17.4-6.7-17.4-17.5c0-54.5,0-108.9,0-163.4
		C0.9,7.6,7.5,0.9,18,0.9C44.7,0.8,71.3,0.8,98,1c2.5,0,5.5,1.4,7.3,3.1c12.2,11.8,24.2,23.8,36,36c1.9,2,3.3,5.4,3.4,8.2
		C145.1,62,144.9,75.7,144.9,90.9z M94.3,11.9c-2.1,0-3.4,0-4.7,0c-23.2,0-46.3,0-69.5,0c-6.9,0-8.2,1.3-8.2,8.1
		c0,53.3,0,106.6,0,160c0,6.8,1.3,8.1,8.2,8.1c24.8,0,49.7,0,74.5,0c10.8,0,21.7-0.1,32.5,0c3.4,0,6.4-1.1,6.6-4.6
		c0.4-8.9,0.1-17.8,0.1-26.6c-0.6-0.4-1.1-0.7-1.7-1.1c-1.2,1.8-2.4,3.5-3.7,5.3c-10.3,13.7-24,20.7-41,22.4
		c-6.8,0.7-9.6-1.5-8.2-8.2c1.4-6.7,2.8-13.4,4.6-19.9c0.7-2.6,2.1-5.3,4-7.2c9.1-9.5,18.6-18.7,27.8-28
		c6.1-6.1,14.4-11.4,17.5-18.9c3-7.2,0.8-16.7,0.8-25.2c0-8.1,0-16.2,0-24.1c-0.9-0.4-1.2-0.7-1.4-0.7c-9.8-0.1-19.7-0.1-29.5-0.1
		c-7.4,0-8.7-1.3-8.7-8.8C94.3,32.5,94.3,22.5,94.3,11.9z M91.7,171.9c6.1-2.1,12.3-2.5,15.7-5.8c26.5-25.7,52.5-52,78.6-78.1
		c2.9-2.9,2.7-5.9,0.8-9c-2.4-3.9-8.3-6.1-13-1.3c-24.4,24.8-48.9,49.5-73.8,73.7C94.1,156.9,93.1,163.4,91.7,171.9z M105.7,21.1
		c0,6.3,0,12.5,0,18.7c6.6,0,12.8,0,18.6,0C118.1,33.6,111.9,27.4,105.7,21.1z"/>
	<path class="st1" d="M72.8,110.2c-13.7,0-27.3,0-41,0c-4,0-7.8-0.5-7.7-5.5c0.1-4.9,3.8-5.5,7.8-5.5c27.3,0,54.6,0,81.9,0
		c5.8,0,8.9,3,7.6,7.1c-1.1,3.3-3.6,3.9-6.7,3.9C100.7,110.2,86.7,110.2,72.8,110.2z"/>
	<path class="st1" d="M73.1,68.6c13.5,0,27-0.1,40.4,0.1c2.1,0,4.5,0.3,6.1,1.4c3.5,2.4,2.4,7.7-1.7,9c-1.7,0.5-3.6,0.5-5.4,0.5
		c-26.5,0-52.9,0-79.4,0c-0.8,0-1.7,0-2.5,0c-3.8-0.1-6.7-1.6-6.5-5.8c0.2-4,3-5.2,6.6-5.2c13.1,0,26.3,0,39.4,0
		C71.1,68.6,72.1,68.6,73.1,68.6z"/>
	<path class="st1" d="M51.2,37.9c6.7,0,13.3,0.1,20,0c3.9,0,6.8,1.4,6.7,5.5c0,4.1-3.1,5.5-6.9,5.5c-13.3,0-26.6,0-40,0
		c-3.8,0-6.9-1.2-7-5.4c-0.1-4.6,3.1-5.7,7.1-5.6C37.8,37.9,44.5,37.9,51.2,37.9z"/>
	<path class="st1" d="M50.2,141c-6.5,0-13,0-19.4,0c-3.9,0-6.7-1.4-6.7-5.6c0-4.2,3-5.5,6.8-5.5c13,0.1,25.9,0.1,38.9,0
		c3.9,0,6.7,1.5,6.7,5.6c0,4.1-2.9,5.5-6.8,5.5C63.2,140.9,56.7,141,50.2,141z"/>
	<path class="st1" d="M43.6,171.8c-4.5,0-9,0.1-13.5,0c-3.6-0.1-6.2-1.8-6.1-5.8c0.1-3.6,2.5-5.2,6-5.2c9.2,0,18.3,0,27.5,0
		c3.6,0,5.8,1.8,5.8,5.4c0,3.6-2.3,5.4-5.8,5.5C52.9,171.9,48.3,171.8,43.6,171.8z"/>
</g>
<g id="Camada_2">
	<path class="st2" d="M129.2,196H17.8C10,196,3.7,189.7,3.7,182V17.6C3.7,9.8,10,3.5,17.8,3.5h111.4c7.8,0,14.1,6.3,14.1,14.1V182
		C143.3,189.7,137,196,129.2,196z"/>
	<polygon class="st3" points="99.9,3.5 99.9,43.4 143.3,43.4 	"/>
	<line class="st4" x1="75.4" y1="42.9" x2="26.8" y2="42.9"/>
	<line class="st4" x1="74.6" y1="135.5" x2="25.9" y2="135.5"/>
	<line class="st4" x1="117.5" y1="104.8" x2="25.9" y2="104.8"/>
	<line class="st4" x1="118.6" y1="74.1" x2="27.1" y2="74.1"/>
	<line class="st4" x1="59.8" y1="166.3" x2="27.1" y2="166.3"/>
	<path class="st5" d="M84.2,178.6l5.5-25.1l78.6-79.4c0,0,11.1-11.5,21.5-2.5c12.7,11-1.1,22.6-1.1,22.6l-77.4,77.6L84.2,178.6z"/>
</g>
</svg>
