<?xml version="1.0" encoding="utf-8"?>
<!-- Generator: Adobe Illustrator 21.1.0, SVG Export Plug-In . SVG Version: 6.00 Build 0)  -->
<svg version="1.1" id="Camada_1" xmlns="http://www.w3.org/2000/svg" xmlns:xlink="http://www.w3.org/1999/xlink" x="0px" y="0px"
	 viewBox="0 0 386.8 295.5" style="enable-background:new 0 0 386.8 295.5;" xml:space="preserve">
<style type="text/css">
	.st0{fill:#FFCA2C;}
</style>
<path class="st0" d="M0,36C11.8,8.1,33.7-0.3,62.8,0c88.6,0.9,177.2,0.3,265.8,0.3c40.7,0,58.3,17.4,58.3,57.6
	c0,60.9,0.1,121.8,0,182.7c-0.1,35.5-18.4,54.5-53.7,54.5c-93.1,0.2-186.2-0.1-279.4,0.2c-26.4,0.1-43.3-12.7-53.7-35.8
	C0,185.1,0,110.6,0,36z M195,22.3c-46.3,0-92.6-0.1-138.9,0.1c-25.8,0.1-34.6,9-34.6,34.6c-0.1,60.4-0.1,120.8,0,181.2
	c0,26.5,8.8,35.4,35.3,35.5c91.1,0.1,182.2,0.1,273.3,0c26.6,0,35.3-8.9,35.3-35.4c0.1-59.9,0.1-119.8,0-179.7
	c0-27.6-8.4-36.1-36-36.2C284.5,22.1,239.8,22.2,195,22.3z"/>
<path class="st0" d="M143.9,146c-29.7-26.6-58.2-52.1-86.7-77.6c-3-2.7-7.3-5-8.5-8.3c-1.6-4.5-2.6-11.7-0.2-14.3
	c2.4-2.6,10-2.3,14.2-0.6c4.9,2,8.6,6.8,12.7,10.5c39,34.9,77.9,69.8,118.1,105.7c10.6-9.5,20.6-18.4,30.6-27.4
	c30.4-27.2,60.6-54.6,91.2-81.6c6.6-5.8,14.1-17.6,23.6-6.3c9.1,10.9-3.4,16.7-9.9,22.7c-27.8,25.4-55.9,50.5-84.9,76.5
	c22.3,21.3,43.7,41.7,65.2,62c8.4,8,16.8,15.9,25.2,23.9c5.8,5.5,11.4,11.7,4.2,19.2c-7.4,7.6-13.7,1.6-19.3-3.7
	c-30.3-28.7-60.6-57.5-91.3-86.7c-8.1,7.1-15.8,13.5-23.1,20.4c-7.6,7.1-14.8,7.4-22.4,0.2c-6.9-6.5-14.1-12.6-22.3-19.9
	c-29.4,27.5-57.8,54.4-86.7,80.8c-6.7,6.1-13.8,19.5-24.5,8.4c-11-11.4,3.3-17.5,9.7-23.7C86.3,199.6,114.4,173.7,143.9,146z"/>
</svg>
