<?xml version="1.0" encoding="utf-8"?>
<!-- Generator: Adobe Illustrator 21.1.0, SVG Export Plug-In . SVG Version: 6.00 Build 0)  -->
<svg version="1.1" id="Camada_1" xmlns="http://www.w3.org/2000/svg" xmlns:xlink="http://www.w3.org/1999/xlink" x="0px" y="0px"
	 viewBox="0 0 376.9 376.9" style="enable-background:new 0 0 376.9 376.9;" xml:space="preserve">
<style type="text/css">
	.st0{fill:#650164;}
</style>
<path class="st0" d="M185.2,376.9c-5.6-0.5-11.3-0.9-16.9-1.4c-22.7-2-44.8-6.7-66.6-12.8c-2-0.6-2.7-1.4-2.7-3.4
	c0.1-17.6-0.2-35.3,0.2-52.9c0.7-29.1,26.7-56.3,58.1-58.9c20.6-1.7,41.4-0.7,62.1-0.7c3.2,0,6.5,0.7,9.6,1.5
	c31.7,7.3,52.5,32,52.8,62.7c0.1,15.6-0.1,31.2,0.1,46.9c0,2.6-1.1,3.7-3.4,4.7c-13.6,5.8-28,9.3-42.7,11.4c-9.2,1.3-18.5,2-27.8,3
	C200.4,376.9,192.8,376.9,185.2,376.9z"/>
<path class="st0" d="M126.9,195.4c1,16.9,8.2,30.6,21.3,42.1c-46.6,15.6-65,45.8-61.4,88c-9.8-1-19-1.3-28-2.9
	c-18.3-3.2-36.4-7.2-54.7-10.7c-3.4-0.7-4.2-2-4.1-4.9c0.2-15.7,0-31.5,0.1-47.2c0.2-36.6,32-64.2,74.2-64.4c15.4-0.1,30.8,0,46.3,0
	C122.5,195.4,124.5,195.4,126.9,195.4z"/>
<path class="st0" d="M233.8,237.9c17-20.4,17-20.4,21.7-42.5c3.4,0,6.8,0,10.3,0c15.9,0.2,32-0.7,47.7,0.9
	c34.9,3.5,61.7,28.8,63.1,59c0.8,17.5,0.3,35,0.2,52.5c0,1.1-1.6,2.8-3,3.3c-12.9,5.5-26.7,8.9-40.9,10.9
	c-12.1,1.7-24.3,2.8-37.3,4.2c0-3.2,0-5.5,0-7.8c0.2-11.9-0.4-23.7-5.6-35c-10.1-21.8-27.8-36.7-53.4-44.6
	C235.7,238.5,234.9,238.3,233.8,237.9z"/>
<path class="st0" d="M190.8,243c-27.4-0.1-49.7-22.5-49.4-49.7c0.3-27.4,22.4-49.2,49.6-49.1c27.5,0.1,49.5,22.2,49.3,49.7
	C240.1,221.1,218.1,243.1,190.8,243z"/>
<path class="st0" d="M104.1,191.9c-26.5,0.2-48.3-20.9-49.3-47.7c-1-26.5,19.4-49.2,45.7-50.9c28.8-1.9,52.7,20,53,48.8
	c0,1.7-1,3.9-2.3,5c-10.3,9.2-17.2,20.3-20,33.9c-0.5,2.4-1.5,3.9-3.7,5C120.1,189.8,112.6,191.8,104.1,191.9z"/>
<path class="st0" d="M272.7,93c25.5-0.1,47.6,20.4,49.4,45.1c2,27.1-17.2,50.2-43.3,53.4c-8.3,1-16.5,0.1-24.2-3.3
	c-1.3-0.6-2.8-2.2-3-3.6c-2.9-17.3-11.4-31-25.7-41.1c-1.9-1.3-2.5-2.7-2.4-4.9C224.7,113.7,246.9,93.1,272.7,93z"/>
<path class="st0" d="M151.2,105c25.2-1.6,49.4-1.6,74.4,0c-6.9,10-10.6,20.2-11.4,31.8c-17.6-6.8-34.4-6.2-51.4,2.4
	C162.2,126.9,158.8,115.7,151.2,105z"/>
<path class="st0" d="M188.4,98.8C161,98.7,138.7,76.3,139,49.1c0.3-27.4,22.4-49.2,49.6-49.1C216,0.1,238,22.2,237.9,49.7
	C237.7,77,215.6,98.9,188.4,98.8z"/>
</svg>
