<?xml version="1.0" encoding="utf-8"?>
<!-- Generator: Adobe Illustrator 21.1.0, SVG Export Plug-In . SVG Version: 6.00 Build 0)  -->
<svg version="1.1" id="Camada_1" xmlns="http://www.w3.org/2000/svg" xmlns:xlink="http://www.w3.org/1999/xlink" x="0px" y="0px"
	 viewBox="0 0 391 391" style="enable-background:new 0 0 391 391;" xml:space="preserve">
<style type="text/css">
	.st0{fill:#FFCA2C;}
</style>
<path class="st0" d="M266.8,391c0-53.4,0-106.3,0-159.8c16,0,31.9,0,48.1,0c2.5-17.9,5-35.3,7.6-53.3c-18.8,0-37.1,0-56.6,0
	c0.8-13,0.7-25.5,2.6-37.7c1.4-9,8.2-14.5,17.6-15.1c9.8-0.7,19.6-0.5,29.5-0.7c2.3,0,4.6,0,7.2,0c0-17,0-33.6,0-51
	c-7.2-0.6-14.4-1.8-21.7-1.7c-12.9,0.2-26.2-0.3-38.7,2.1c-25.8,5-41.2,22.1-45.8,47.4c-2.8,15.6-2.3,31.8-3.2,47.7
	c-0.2,2.8,0,5.6,0,8.7c-17.8,0-35.1,0-52.8,0c0,17.8,0,35.2,0,53.1c17.2,0,34.6,0,52.4,0c0,53.6,0,106.6,0,160.2c-2.1,0-4,0-6,0
	c-56.2,0-112.3,0-168.5,0c-23.5,0-38.3-15-38.3-38.5C0,248,0,143.5,0,39C0,14.8,14.7,0,38.7,0c104.7,0,209.3,0,314,0
	c23.2,0,38.2,15,38.2,38.1c0,105,0,210,0,315c0,22.7-15.2,37.9-37.9,38c-26.8,0-53.7,0-80.5,0C270.7,391,268.9,391,266.8,391z"/>
</svg>
