<?xml version="1.0" encoding="utf-8"?>
<!-- Generator: Adobe Illustrator 21.1.0, SVG Export Plug-In . SVG Version: 6.00 Build 0)  -->
<svg version="1.1" id="Capa_1" xmlns="http://www.w3.org/2000/svg" xmlns:xlink="http://www.w3.org/1999/xlink" x="0px" y="0px"
	 viewBox="0 0 310.3 310.3" style="enable-background:new 0 0 310.3 310.3;" xml:space="preserve">
<style type="text/css">
	.st0{fill:#FFCA2C;}
</style>
<g>
	<path class="st0" d="M155.1,0C69.6,0,0,69.6,0,155.1c0,85.5,69.6,155.1,155.1,155.1s155.1-69.6,155.1-155.1
		C310.3,69.6,240.7,0,155.1,0z M149.3,227.8c-7.3,0-12.3-5.6-12.3-12.9c0-7.7,5.2-13.2,12.5-13.2c7.3,0,12.3,5.4,12.3,13.2
		C161.8,222.2,157,227.8,149.3,227.8z M169.5,149.5c-9.2,10.9-12.5,20-11.9,30.7l0.2,5.4h-16.3l-0.4-5.4c-1.3-11.3,2.5-23.6,13-36.1
		c9.4-11.1,14.6-19.2,14.6-28.6c0-10.7-6.7-17.8-19.9-18c-7.5,0-15.9,2.5-21.1,6.5l-5-13.2c6.9-5,18.8-8.4,29.9-8.4
		c24,0,34.9,14.8,34.9,30.7C187.5,127.4,179.6,137.6,169.5,149.5z"/>
</g>
</svg>
