<?xml version="1.0" encoding="utf-8"?>
<!-- Generator: Adobe Illustrator 21.1.0, SVG Export Plug-In . SVG Version: 6.00 Build 0)  -->
<svg version="1.1" id="Camada_1" xmlns="http://www.w3.org/2000/svg" xmlns:xlink="http://www.w3.org/1999/xlink" x="0px" y="0px"
	 viewBox="0 0 179.8 180.1" style="enable-background:new 0 0 179.8 180.1;" xml:space="preserve">
<style type="text/css">
	.st0{fill:#FFCA2C;}
</style>
<path class="st0" d="M179.7,89.9c0,17.7,0,35.3,0,53c-0.1,21.7-15.3,37.1-37.1,37.2c-35,0.1-70-0.1-105,0.1
	c-24,0.1-38-19.2-37.7-37.8c0.7-35.3,0.2-70.6,0.2-106C0.2,15.6,15.4,0.2,36,0.1c36-0.1,72-0.1,108,0c20.2,0.1,35.2,15.1,35.8,35.3
	c0,0.3,0,0.7,0,1C179.7,54.2,179.7,72,179.7,89.9z M89.6,158.3c10.2,0,20.3,0.2,30.5,0c20.3-0.6,37.9-18,38.3-38.2
	c0.4-20.1,0.4-40.3,0-60.4c-0.4-20.3-17.9-37.8-38.2-38.2c-20-0.4-40-0.4-59.9,0C39.8,21.8,22,39.6,21.6,60c-0.4,20-0.4,40,0,59.9
	c0.4,20.6,17.9,37.8,38.6,38.4C70,158.6,79.8,158.3,89.6,158.3z"/>
<path class="st0" d="M89.6,149.4c-9,0-18,0-27,0c-17.7-0.1-31.6-13.2-31.9-31c-0.4-19-0.4-38,0-57C31,44.1,44.5,30.8,61.7,30.5
	c18.8-0.3,37.7-0.3,56.5,0c17.9,0.3,31.2,14.2,31.2,32.2c0,18.2,0,36.3,0,54.5c0,18-13.9,32-31.9,32.1
	C108.3,149.4,98.9,149.4,89.6,149.4z M89.9,124.4c19.3,0,34.6-15.2,34.6-34.4c0.1-19.3-15.1-34.7-34.3-34.7
	c-19.6-0.1-34.9,15.1-34.9,34.7C55.4,109.2,70.6,124.4,89.9,124.4z M129.3,43.3c-5.3-0.1-9.1,3.7-9.1,9c0,4.9,3.9,8.9,8.8,9
	c5,0.1,9.4-4.2,9.3-9.1C138.2,47.4,134.1,43.4,129.3,43.3z"/>
<path class="st0" d="M89.9,64.3c14.2,0,25.7,11.4,25.6,25.7c0,14-11.4,25.4-25.4,25.4c-14.2,0-25.7-11.4-25.6-25.7
	C64.5,75.7,75.9,64.3,89.9,64.3z"/>
</svg>
