<?xml version="1.0" encoding="utf-8"?>
<!-- Generator: Adobe Illustrator 21.1.0, SVG Export Plug-In . SVG Version: 6.00 Build 0)  -->
<svg version="1.1" id="Layer_1" xmlns="http://www.w3.org/2000/svg" xmlns:xlink="http://www.w3.org/1999/xlink" x="0px" y="0px"
	 viewBox="0 0 289.1 289.1" style="enable-background:new 0 0 289.1 289.1;" xml:space="preserve">
<style type="text/css">
	.st0{fill:#F9BA48;}
	.st1{fill:#650164;}
</style>
<g>
	<g>
		<path class="st0" d="M120.5,86c-10.3,0-18.8-8.4-18.8-18.8s8.4-18.8,18.8-18.8s18.8,8.4,18.8,18.8S130.8,86,120.5,86z"/>
		<path class="st0" d="M172.1,67.2c-10.3,0-18.8-8.4-18.8-18.8s8.4-18.8,18.8-18.8s18.8,8.4,18.8,18.8S182.4,67.2,172.1,67.2z"/>
		<rect x="106.4" y="20.3" class="st1" width="9.4" height="23.4"/>
		<rect x="125.2" y="15.6" class="st1" width="9.4" height="28.1"/>
		<rect x="158" y="6.3" class="st1" width="9.4" height="18.8"/>
		<rect x="176.8" y="1.6" class="st1" width="9.4" height="23.4"/>
		<path class="st1" d="M289.1,89.5l-5.6-22.3h-22.4v9.4h9.5l-29.2,40.1l-22.9-18.3l-23.3,23.3c-0.9-6.9-6.7-12.3-13.9-12.3h-1.3
			l18.8-32.8H93.4l17.7,29.1l-15.7,13.1H3.3v9.4h95.4l27.5-22.9l29,8.3l9.9,12.3c1.3,1.6,1.9,3.7,1.6,5.7c-0.3,2.1-1.3,3.9-3,5.2
			c-3,2.3-7.3,2-10-0.7l-9.5-9.5l-26.7,21.4l2.7,3.4c-0.9,11.9-6.2,23.4-15.4,32.8c-0.1,0.1-0.1,0.1-0.2,0.2h-1.9l-9.4-4.7H3.3v9.4
			h88l6.9,3.4c-5.6,8.3-9.1,17.8-10.1,27.8l-19.1-19.1L0,270.1l6.6,6.6l62.3-62.3l19.2,19.2c3.5,29,28.4,52.6,58,53.8
			c0.9,0,1.7,0.1,2.5,0.1c15.8,0,30.7-6,42.2-17c12.1-11.6,18.7-27.2,18.7-44c0-15.2-5.6-29.4-15.6-40.6c1-1.9,1.5-4,1.5-6.3
			c0-3.6-1.4-6.9-3.7-9.4c2.2-2.5,3.7-5.8,3.7-9.4s-1.4-6.9-3.7-9.4c2.2-2.5,3.7-5.8,3.7-9.4c0-2.2-0.5-4.2-1.4-6l25.2-25.2l24,19.2
			l34.5-47.4l2.3,9L289.1,89.5z M186.1,123.5c0,2.6-2.1,4.7-4.7,4.7h-5.5c-0.4-3-1.6-5.8-3.5-8.2l-1-1.2h9.9
			C184,118.8,186.1,120.9,186.1,123.5z M124.1,94.8l-5.7,4.8L110.1,86h72.6l-13.4,23.4H164l-3.3-4.1L124.1,94.8z M169.4,144.2
			c2.4-1.8,4.1-4.1,5.3-6.7h6.8c2.6,0,4.7,2.1,4.7,4.7c0,2.6-2.1,4.7-4.7,4.7H164C165.9,146.3,167.7,145.5,169.4,144.2z M186.1,161
			c0,2.6-2.1,4.7-4.7,4.7h-18.8c-2.6,0-4.7-2.1-4.7-4.7c0-2.6,2.1-4.7,4.7-4.7h18.8C184,156.3,186.1,158.4,186.1,161z M186.1,179.7
			c0,2.6-2.1,4.7-4.7,4.7h-18.8c-2.6,0-4.7-2.1-4.7-4.7c0-2.6,2.1-4.7,4.7-4.7h18.8C184,175,186.1,177.1,186.1,179.7z M184.3,263.8
			c-10.2,9.8-23.6,14.9-37.9,14.3c-26.8-1.1-48.9-23.8-49.4-50.6c-0.2-13.8,4.9-26.9,14.6-36.8c11.2-11.5,17.5-25.8,18.1-40.5
			l13.8-11.1l3.5,3.5c0.5,0.5,1.1,1,1.7,1.4c0.4,2.9,1.6,5.5,3.5,7.5c-2.2,2.5-3.7,5.8-3.7,9.4s1.4,6.9,3.7,9.4
			c-2.2,2.5-3.7,5.8-3.7,9.4s1.4,6.9,3.7,9.4h-8.3v9.4h-2.3c-9,0-16.4,7.4-16.4,16.4s7.4,16.4,16.4,16.4h14.1c3.9,0,7,3.2,7,7
			s-3.2,7-7,7h-14.1c-3.9,0-7-3.2-7-7V236h-9.4v2.3c0,9,7.4,16.4,16.4,16.4h2.3v9.4h9.4v-9.4h2.3c9,0,16.4-7.4,16.4-16.4
			s-7.4-16.4-16.4-16.4h-14.1c-3.9,0-7-3.2-7-7c0-3.9,3.2-7,7-7h14.1c3.9,0,7,3.2,7,7v2.3h9.4v-2.3c0-9-7.4-16.4-16.4-16.4h-2.3
			v-8.3c2.5,2.2,5.8,3.7,9.4,3.7h18.8c2.1,0,4-0.5,5.8-1.3c8.4,9.4,13,21.4,13,34.1C200.2,240.8,194.6,254,184.3,263.8z"/>
	</g>
</g>
</svg>
