<?xml version="1.0" encoding="utf-8"?>
<!-- Generator: Adobe Illustrator 21.1.0, SVG Export Plug-In . SVG Version: 6.00 Build 0)  -->
<svg version="1.1" id="Camada_1" xmlns="http://www.w3.org/2000/svg" xmlns:xlink="http://www.w3.org/1999/xlink" x="0px" y="0px"
	 viewBox="0 0 283.5 283.5" style="enable-background:new 0 0 283.5 283.5;" xml:space="preserve">
<style type="text/css">
	.st0{fill:#650164;}
	.st1{fill:#FFFFFF;}
</style>
<g>
	<path class="st0" d="M283.5,283.5c-2.6,0-191.5,0-283.5,0c0-2.7,0-5.4,0-8c0-1.4,0.1-2.7,0.1-4.1c0-89.5,0-179,0-268.5
		c0-3-0.4-2.7,2.5-2.7c88.8,0,177.6,0,266.4,0c4.2,0,8.5-0.1,12.7-0.1c0.5,0,1.1,0,1.7,0C283.5,91.7,283.5,191.7,283.5,283.5z
		 M38.5,241.2c0,3.2,0,6.4,0,9.6c0,1.2,0.3,1.7,1.5,1.7c2.7-0.1,5.5-0.2,8.2-0.2c24.2,0,48.4,0,72.6,0c0.7,0,1.3,0,2.1,0
		c0-3.8,0-7.4,0-11.3c3.6,0,7,0,10.6,0c0-0.7,0-1.2,0-1.6c0-32.8,0.1-65.7,0.2-98.5c0-1.5-0.4-2-1.8-2c-12.6,0.1-25.2,0-37.8,0
		c-3.1,0-2.8-0.5-2.8,2.9c0,28.5,0,56.9,0,85.4c0,0.8,0,1.5,0,2.4c-7.1,0-14,0-21,0c0-0.8,0-1.5,0-2.2c0-28.8,0.1-57.6,0.2-86.4
		c0-1.7-0.4-2.2-2-2.2c-12.8,0.1-25.6,0.1-38.5,0c-1.5,0-2,0.3-2,2.1c0.1,32.7,0,65.5,0,98.2c0,1.6,0.4,2.1,1.9,2.1
		C32.6,241.2,35.5,241.2,38.5,241.2z M152.1,139c0,0.9-0.1,1.7-0.1,2.6c0,36.1,0,72.2,0,108.3c0,0.3,0,0.7,0,1
		c-0.1,1.2,0.3,1.7,1.5,1.7c2.5-0.1,5-0.2,7.5-0.2c10.5,0,21,0,31.4,0c0.6,0,1.2,0,1.9,0c0-15.3,0-30.3,0-45.5c17.6,0,35.1,0,52.7,0
		c0-3.8,0-7.4,0-11.2c3.6,0,7,0,10.5,0c0-0.9,0-1.5,0-2.2c0-12.1,0-24.2,0-36.3c0-1.8,0-3.6,0.1-5.4c0.1-1.1-0.4-1.5-1.4-1.4
		c-1.4,0.1-2.8,0.1-4.2,0.1c-1.6,0-3.3,0-5.1,0c0-3.9,0-7.6,0-11.4C215.3,139,183.7,139,152.1,139z M147.2,118.1c-2.8,0-5.2,0-7.8,0
		c0-0.8,0-1.4,0-2.1c0-10.1,0.1-20.3,0.1-30.4c0-1.1-0.2-1.8-1.4-1.7c-4.4,0.1-8.8,0-13.2,0c-1.1,0-1.4,0.4-1.4,1.6
		c0,13.3,0,26.6,0,39.8c0,1.4,0.5,1.7,1.6,1.7c2.3-0.1,4.7-0.1,7-0.1c8.5,0,16.9,0,25.4,0c0.5,0,1.1-0.1,1.7-0.1
		c0.1-1.5,0.1-2.8,0.2-4.3c1.3,0,2.5,0,3.6,0c0.1-0.3,0.1-0.5,0.1-0.6c0.1-12.2,0.1-24.3,0.2-36.5c0-1.2-0.5-1.5-1.5-1.5
		c-4.2,0-8.4,0.1-12.6,0c-1.5,0-2.1,0.4-2,2.1c0.1,9.9,0,19.8,0,29.8C147.2,116.5,147.2,117.2,147.2,118.1z M104.6,109.8
		c0-2.6,0-5,0-7.3c0-1-0.3-1.3-1.2-1.3c-1.8,0.1-3.6,0.1-5.4,0.1c-1.7,0-3.5,0-5.3,0c0-3,0-5.7,0-8.8c7.9,0,15.8,0,23.8,0
		c0-2.4-0.1-4.5,0-6.6c0.1-1.7-0.5-2.1-2-2.1c-10.6,0.1-21.3,0-31.9,0c-2.1,0-2.2,0-2.1,2.3c0.1,1.6-0.4,2.2-1.9,2.1
		c-2.1-0.1-2.1,0-2.1,2.3c0,9.8,0,19.6,0,29.4c0,2.6,0,2.6,2.5,2.6c0.5,0,0.9,0.1,1.4,0.1c0.1,0.3,0.1,0.6,0.1,0.8
		c0.2,3.3,0.2,3.3,3.3,3.3c10.2,0,20.4,0,30.7,0c0.6,0,1.2,0,2,0c0-2.4-0.1-4.6,0-6.8c0.1-1.4-0.3-2-1.7-1.9
		c-5.9,0.1-11.7,0.1-17.6,0.2c-1.5,0-3,0-4.5,0c0-2.9,0-5.6,0-8.5C96.6,109.8,100.5,109.8,104.6,109.8z M186.1,92.6
		c7.9,0,15.7,0,23.8,0c0-2.3-0.1-4.4,0-6.5c0.1-1.7-0.4-2.2-2-2.2c-10.6,0.1-21.3,0-31.9,0c-2.1,0-2.2,0-2,2.2
		c0.1,1.7-0.4,2.4-2,2.1c-1.5-0.3-2.1,0.4-2,2.1c0.1,10.1,0,20.2,0,30.3c0,0.6,0.1,1.2,0.1,2c0.9,0,1.7,0.1,2.4,0
		c1.1-0.1,1.4,0.4,1.4,1.5c0,2.7,0,2.7,2.6,2.7c0.3,0,0.5,0,0.8,0c10.2,0,20.3,0,30.5,0c0.6,0,1.2,0,2.1,0c0-2.5-0.1-4.7,0-6.9
		c0.1-1.4-0.4-1.8-1.7-1.8c-5.9,0.1-11.7,0.1-17.6,0.2c-1.5,0-3,0-4.5,0c0-2.9,0-5.6,0-8.5c4,0,7.8,0,11.9,0c0-2.6,0-4.9,0-7.3
		c0-1-0.4-1.3-1.2-1.3c-1.8,0.1-3.6,0.1-5.4,0.1c-1.7,0-3.5,0-5.3,0C186.1,98.3,186.1,95.5,186.1,92.6z M232.6,118.1
		c0-0.8,0-1.5,0-2.2c0.1-10,0.1-20,0.2-30.1c0-1.4-0.3-2-1.7-2c-4.3,0.1-8.6,0.1-12.9,0c-1.1,0-1.5,0.4-1.5,1.7
		c0,13.3,0,26.6,0,39.8c0,1.3,0.4,1.6,1.6,1.6c2.5-0.1,5-0.1,7.5-0.1c9.6,0,19.2,0,28.8,0c0.6,0,1.2,0,2.1,0c0-2.5-0.1-4.7,0-7
		c0.1-1.3-0.4-1.7-1.6-1.7c-5.3,0.1-10.6,0-15.9,0C237.1,118.1,235,118.1,232.6,118.1z M45.9,118.1c0-0.8,0-1.5,0-2.2
		c0-10.1,0.1-20.2,0.1-30.3c0-1.4-0.4-1.9-1.7-1.8c-4.3,0.1-8.5,0.1-12.8,0c-1.1,0-1.7,0.2-1.7,1.7c0,13.3,0,26.6,0,39.8
		c0,1.3,0.5,1.6,1.6,1.6c2-0.1,3.9-0.1,5.9-0.1c10.1,0,20.2,0,30.4,0c0.6,0,1.2,0,2.1,0c0-2.5,0-4.7,0-7c0-1.3-0.3-1.8-1.6-1.8
		c-5.3,0.1-10.7,0-16,0C50.2,118.1,48.1,118.1,45.9,118.1z M140.7,38c0,10,0,20.1,0,30.1c4.7,0,9.3,0,14,0c0-11.4,0-22.6,0-34
		c-1.2,0-2.3,0-3.5,0c0-0.6,0.1-1.1,0.1-1.5c0.1-2.3,0.1-2.3-2.1-2.3c-2.8,0-5.6,0-8.4,0c-3.7,0-3.7,0-3.7,4.1
		C137.1,38,137.1,38,140.7,38z M108.7,50.4c0,0.9,0,1.6,0,2.4c0,2.5-0.1,5-0.1,7.6c0,0.5,0.6,1.3,0.9,1.3c2.9,0.1,5.8,0.1,8.9,0.1
		c0-4,0-7.6,0-11.4c3.4,0,6.6,0,9.7,0c0.9-4.5,0.8-4.7-3.1-4.7c-0.6,0-1.2,0-1.9,0c-1.5,0.1-3.1,0.2-4.6,0.2
		c-0.1-0.6-0.2-0.9-0.2-1.2c0-3,0-5.9,0.2-8.9c0.1-1.4-0.2-2.1-1.8-2c-2.3,0.1-4.6,0.1-6.8,0c-1.1,0-1.4,0.4-1.4,1.5
		c0.1,3,0,5.9,0,8.9c0,1.1-0.4,1.5-1.4,1.5c-2.3,0-4.7,0-7,0c-1.2,0-1.6,0.4-1.5,1.7c0,0.3,0,0.6,0,0.8c0,2.4,0,2.4,2.3,2.3
		C103.4,50.3,105.9,50.4,108.7,50.4z M174.7,56.1c0.1-0.4,0.2-0.6,0.2-0.8c0.1-8.8,0.1-17.7,0.2-26.5c0-1-0.4-1.4-1.3-1.4
		c-2.4,0-4.8,0-7.1,0c-1.1,0-1.4,0.5-1.4,1.6c0,3.8,0,7.6,0,11.4c0,4.6,0,9.3,0,13.9c0,0.8-0.2,1.7,1,1.7
		C169.1,56,171.9,56.1,174.7,56.1z M276.8,275.6c0-4.1,0-8,0-11.8c0-0.3-0.6-0.9-0.9-1c-3.3-0.1-6.6-0.1-10,0c-0.3,0-1,0.7-1,1.1
		c-0.1,3.5-0.1,7.1,0,10.6c0,0.4,0.6,1.1,0.9,1.1C269.4,275.6,273,275.6,276.8,275.6z M18.5,275.5c0-4,0-7.9-0.1-11.7
		c0-0.4-0.8-1-1.2-1c-3.1-0.1-6.2,0-9.3-0.1c-0.9,0-1.3,0.2-1.3,1.3c0,3.4,0,6.8,0,10.2c0,1.1,0.4,1.4,1.3,1.3
		c1.6-0.1,3.2-0.1,4.8-0.1C14.6,275.5,16.4,275.5,18.5,275.5z M276.7,7.4c-3.7,0-7.3,0-10.8,0c-0.8,0-1.1,0.4-1.1,1.2
		c0,3.4,0,6.8,0,10.3c0,1,0.5,1.2,1.3,1.2c2.9-0.1,5.8-0.1,8.7-0.1c0.6,0,1.2,0,1.9,0C276.7,15.7,276.7,11.7,276.7,7.4z M6.8,19.9
		c3.9,0,7.7,0,11.8,0c0-3.9,0-7.7-0.1-11.5c0-0.3-0.8-0.9-1.2-0.9c-2.5-0.1-5.1,0-7.6,0c-1,0-1.9,0-2.9,0
		C6.8,11.8,6.8,15.8,6.8,19.9z M175,68.3c0-2.8,0.1-5.2-0.1-7.5c0-0.4-0.7-1.1-1.1-1.1c-2.5-0.1-5,0-7.5-0.1c-0.9,0-1.2,0.4-1.2,1.3
		c0,2,0,3.9,0,5.9c0,1.1,0.4,1.5,1.4,1.5C169.3,68.3,172,68.3,175,68.3z"/>
	<path class="st1" d="M38.5,241.2c-3,0-5.8-0.1-8.7,0c-1.5,0.1-1.9-0.5-1.9-2.1c0-32.7,0-65.5,0-98.2c0-1.8,0.5-2.1,2-2.1
		c12.8,0.1,25.6,0.1,38.5,0c1.6,0,2,0.5,2,2.2c-0.1,28.8-0.1,57.6-0.2,86.4c0,0.7,0,1.4,0,2.2c7,0,13.9,0,21,0c0-0.9,0-1.7,0-2.4
		c0-28.5,0-56.9,0-85.4c0-3.4-0.3-2.9,2.8-2.9c12.6,0,25.2,0,37.8,0c1.4,0,1.8,0.4,1.8,2c-0.1,32.8-0.1,65.7-0.2,98.5
		c0,0.4,0,0.9,0,1.6c-3.6,0-7,0-10.6,0c0,3.9,0,7.5,0,11.3c-0.8,0-1.5,0-2.1,0c-24.2,0-48.4,0-72.6,0c-2.7,0-5.5,0-8.2,0.2
		c-1.2,0-1.5-0.4-1.5-1.7C38.5,247.7,38.5,244.5,38.5,241.2z"/>
	<path class="st1" d="M152.1,139c31.7,0,63.2,0,94.9,0c0,3.8,0,7.5,0,11.4c1.8,0,3.4,0,5.1,0c1.4,0,2.8,0,4.2-0.1
		c1-0.1,1.4,0.3,1.4,1.4c-0.1,1.8-0.1,3.6-0.1,5.4c0,12.1,0,24.2,0,36.3c0,0.7,0,1.3,0,2.2c-3.5,0-6.9,0-10.5,0c0,3.8,0,7.4,0,11.2
		c-17.6,0-35.1,0-52.7,0c0,15.2,0,30.2,0,45.5c-0.7,0-1.3,0-1.9,0c-10.5,0-21,0-31.4,0c-2.5,0-5,0-7.5,0.2c-1.2,0.1-1.6-0.5-1.5-1.7
		c0-0.3,0-0.7,0-1c0-36.1,0-72.2,0-108.3C151.9,140.8,152,139.9,152.1,139z M194.3,184.3c6.8,0,13.3,0,19.9,0c1.1,0,1.1-0.8,1.1-1.6
		c0-6.5,0.1-13,0.2-19.5c0-1.3-0.3-1.7-1.6-1.7c-6.1,0.1-12.1,0-18.2,0c-0.4,0-0.9,0.1-1.4,0.1C194.3,169.3,194.3,176.8,194.3,184.3
		z"/>
	<path class="st1" d="M147.2,118.1c0-1,0-1.7,0-2.4c0-9.9,0-19.8,0-29.8c0-1.8,0.5-2.2,2-2.1c4.2,0.1,8.4,0.1,12.6,0
		c1,0,1.5,0.2,1.5,1.5c-0.1,12.2-0.2,24.3-0.2,36.5c0,0.2-0.1,0.3-0.1,0.6c-1.1,0-2.3,0-3.6,0c-0.1,1.5-0.1,2.8-0.2,4.3
		c-0.6,0-1.2,0.1-1.7,0.1c-8.5,0-16.9,0-25.4,0c-2.3,0-4.7,0-7,0.1c-1.2,0.1-1.6-0.3-1.6-1.7c0-13.3,0-26.6,0-39.8
		c0-1.1,0.3-1.6,1.4-1.6c4.4,0,8.8,0.1,13.2,0c1.2,0,1.4,0.6,1.4,1.7c-0.1,10.1-0.1,20.3-0.1,30.4c0,0.7,0,1.3,0,2.1
		C141.9,118.1,144.4,118.1,147.2,118.1z"/>
	<path class="st1" d="M104.6,109.8c-4.1,0-7.9,0-11.9,0c0,2.9,0,5.6,0,8.5c1.5,0,3,0,4.5,0c5.9,0,11.7,0,17.6-0.2
		c1.4,0,1.8,0.5,1.7,1.9c-0.1,2.2,0,4.4,0,6.8c-0.8,0-1.4,0-2,0c-10.2,0-20.4,0-30.7,0c-3.1,0-3.1,0-3.3-3.3c0-0.2-0.1-0.4-0.1-0.8
		c-0.5,0-0.9-0.1-1.4-0.1c-2.5-0.1-2.5,0-2.5-2.6c0-9.8,0-19.6,0-29.4c0-2.3,0-2.5,2.1-2.3c1.5,0.1,2-0.5,1.9-2.1
		c-0.1-2.3,0-2.3,2.1-2.3c10.6,0,21.3,0,31.9,0c1.5,0,2.1,0.4,2,2.1c-0.1,2.1,0,4.2,0,6.6c-8,0-15.9,0-23.8,0c0,3,0,5.8,0,8.8
		c1.8,0,3.5,0,5.3,0c1.8,0,3.6,0,5.4-0.1c0.9,0,1.2,0.3,1.2,1.3C104.5,104.8,104.6,107.2,104.6,109.8z"/>
	<path class="st1" d="M186.1,92.6c0,3,0,5.7,0,8.7c1.8,0,3.5,0,5.3,0c1.8,0,3.6,0,5.4-0.1c0.9,0,1.2,0.3,1.2,1.3c0,2.3,0,4.7,0,7.3
		c-4.1,0-7.9,0-11.9,0c0,2.9,0,5.6,0,8.5c1.5,0,3,0,4.5,0c5.9,0,11.7-0.1,17.6-0.2c1.3,0,1.8,0.4,1.7,1.8c-0.1,2.2,0,4.5,0,6.9
		c-0.8,0-1.4,0-2.1,0c-10.2,0-20.3,0-30.5,0c-0.3,0-0.5,0-0.8,0c-2.5,0-2.6,0-2.6-2.7c0-1.2-0.3-1.6-1.4-1.5c-0.8,0.1-1.5,0-2.4,0
		c-0.1-0.8-0.1-1.4-0.1-2c0-10.1,0-20.2,0-30.3c0-1.7,0.5-2.4,2-2.1c1.6,0.3,2.1-0.5,2-2.1c-0.1-2.2,0-2.2,2-2.2
		c10.6,0,21.3,0,31.9,0c1.6,0,2.1,0.5,2,2.2c-0.1,2.1,0,4.2,0,6.5C201.8,92.6,194,92.6,186.1,92.6z"/>
	<path class="st1" d="M232.6,118.1c2.4,0,4.4,0,6.5,0c5.3,0,10.6,0,15.9,0c1.2,0,1.7,0.4,1.6,1.7c-0.1,2.3,0,4.6,0,7
		c-0.9,0-1.5,0-2.1,0c-9.6,0-19.2,0-28.8,0c-2.5,0-5,0-7.5,0.1c-1.1,0-1.6-0.3-1.6-1.6c0-13.3,0-26.6,0-39.8c0-1.2,0.4-1.7,1.5-1.7
		c4.3,0,8.6,0.1,12.9,0c1.4,0,1.8,0.5,1.7,2c-0.1,10-0.1,20-0.2,30.1C232.6,116.6,232.6,117.3,232.6,118.1z"/>
	<path class="st1" d="M45.9,118.1c2.2,0,4.3,0,6.4,0c5.3,0,10.7,0,16,0c1.3,0,1.6,0.5,1.6,1.8c-0.1,2.2,0,4.5,0,7
		c-0.9,0-1.5,0-2.1,0c-10.1,0-20.2,0-30.4,0c-2,0-3.9,0-5.9,0.1c-1.1,0.1-1.6-0.3-1.6-1.6c0-13.3,0-26.6,0-39.8
		c0-1.4,0.5-1.7,1.7-1.7c4.3,0,8.5,0.1,12.8,0c1.3,0,1.7,0.5,1.7,1.8c-0.1,10.1-0.1,20.2-0.1,30.3C45.9,116.6,45.9,117.3,45.9,118.1
		z"/>
	<path class="st1" d="M140.7,38c-3.6,0-3.6,0-3.6-3.7c0-4.1,0-4.1,3.7-4.1c2.8,0,5.6,0,8.4,0c2.2,0,2.2,0,2.1,2.3
		c0,0.4,0,0.9-0.1,1.5c1.2,0,2.3,0,3.5,0c0,11.4,0,22.5,0,34c-4.7,0-9.3,0-14,0C140.7,58.1,140.7,48,140.7,38z"/>
	<path class="st1" d="M108.7,50.4c-2.7,0-5.2,0-7.7,0c-2.3,0-2.3,0.1-2.3-2.3c0-0.3,0-0.6,0-0.8c-0.1-1.2,0.4-1.7,1.5-1.7
		c2.3,0.1,4.7,0,7,0c1,0,1.4-0.3,1.4-1.5c-0.1-3,0-5.9,0-8.9c0-1.2,0.3-1.6,1.4-1.5c2.3,0.1,4.6,0.1,6.8,0c1.5-0.1,1.8,0.6,1.8,2
		c-0.1,3-0.1,5.9-0.2,8.9c0,0.3,0.1,0.6,0.2,1.2c1.6-0.1,3.1-0.2,4.6-0.2c0.6,0,1.2,0,1.9,0c3.9,0,4,0.1,3.1,4.7c-3.2,0-6.3,0-9.7,0
		c0,3.8,0,7.4,0,11.4c-3.1,0-6,0-8.9-0.1c-0.3,0-0.9-0.8-0.9-1.3c-0.1-2.5,0-5,0.1-7.6C108.7,52,108.7,51.2,108.7,50.4z"/>
	<path class="st1" d="M174.7,56.1c-2.8,0-5.6,0-8.4,0c-1.1,0-1-0.9-1-1.7c0-4.6,0-9.3,0-13.9c0-3.8,0-7.6,0-11.4
		c0-1.1,0.2-1.7,1.4-1.6c2.4,0.1,4.8,0,7.1,0c0.9,0,1.3,0.3,1.3,1.4c-0.1,8.8-0.1,17.7-0.2,26.5C174.9,55.5,174.8,55.6,174.7,56.1z"
		/>
	<path class="st1" d="M276.8,275.6c-3.8,0-7.4,0-11,0c-0.3,0-0.9-0.7-0.9-1.1c-0.1-3.5-0.1-7.1,0-10.6c0-0.4,0.6-1.1,1-1.1
		c3.3-0.1,6.6-0.1,10,0c0.3,0,0.9,0.6,0.9,1C276.8,267.6,276.8,271.5,276.8,275.6z"/>
	<path class="st1" d="M18.5,275.5c-2.2,0-4,0-5.8,0c-1.6,0-3.2,0-4.8,0.1c-0.9,0-1.3-0.3-1.3-1.3c0-3.4,0-6.8,0-10.2
		c0-1.1,0.4-1.3,1.3-1.3c3.1,0,6.2,0,9.3,0.1c0.4,0,1.2,0.6,1.2,1C18.6,267.6,18.5,271.5,18.5,275.5z"/>
	<path class="st1" d="M276.7,7.4c0,4.2,0,8.3,0,12.5c-0.7,0-1.3,0-1.9,0c-2.9,0-5.8,0.1-8.7,0.1c-0.8,0-1.3-0.1-1.3-1.2
		c0-3.4,0-6.8,0-10.3c0-0.8,0.3-1.2,1.1-1.2C269.5,7.4,273,7.4,276.7,7.4z"/>
	<path class="st1" d="M6.8,19.9c0-4.1,0-8.1,0-12.5c1,0,1.9,0,2.9,0c2.5,0,5.1,0,7.6,0c0.4,0,1.2,0.6,1.2,0.9
		c0.1,3.8,0.1,7.6,0.1,11.5C14.4,19.9,10.7,19.9,6.8,19.9z"/>
	<path class="st1" d="M175,68.3c-3.1,0-5.7,0-8.4,0c-1,0-1.4-0.4-1.4-1.5c0.1-2,0-3.9,0-5.9c0-0.9,0.3-1.3,1.2-1.3
		c2.5,0,5,0,7.5,0.1c0.4,0,1.1,0.7,1.1,1.1C175.1,63.2,175,65.5,175,68.3z"/>
	<path class="st0" d="M194.3,184.3c0-7.5,0-15,0-22.6c0.5,0,0.9-0.1,1.4-0.1c6.1,0,12.1,0,18.2,0c1.3,0,1.6,0.4,1.6,1.7
		c-0.1,6.5-0.1,13-0.2,19.5c0,0.8,0.1,1.6-1.1,1.6C207.6,184.3,201,184.3,194.3,184.3z"/>
</g>
</svg>
