<?xml version="1.0" encoding="utf-8"?>
<!-- Generator: Adobe Illustrator 21.1.0, SVG Export Plug-In . SVG Version: 6.00 Build 0)  -->
<svg version="1.1" xmlns="http://www.w3.org/2000/svg" xmlns:xlink="http://www.w3.org/1999/xlink" x="0px" y="0px"
	 viewBox="0 0 195.9 195.8" style="enable-background:new 0 0 195.9 195.8;" xml:space="preserve">
<style type="text/css">
	.st0{fill:#5E2262;}
	.st1{fill:none;stroke:#5E2262;stroke-width:6;stroke-miterlimit:10;}
	.st2{fill:none;stroke:#5E2261;stroke-width:6;stroke-miterlimit:10;}
	.st3{fill:#FFFFFF;}
	.st4{fill:#F9BA48;}
</style>
<g id="Camada_1">
	<path class="st0" d="M58.3,162.8c-8.4,0-16.7,0-25,0c0-8.4,0-16.7,0-25.1c8.3,0,16.6,0,25,0C58.3,146.1,58.3,154.4,58.3,162.8z
		 M54.4,158.9c0-5.8,0-11.6,0-17.3c-5.8,0-11.6,0-17.3,0c0,5.8,0,11.5,0,17.3C42.9,158.9,48.6,158.9,54.4,158.9z"/>
	<path class="st0" d="M33.2,127.9c0-8.4,0-16.7,0-25c8.4,0,16.7,0,25.1,0c0,8.3,0,16.6,0,25C50,127.9,41.6,127.9,33.2,127.9z
		 M37.1,124c5.8,0,11.6,0,17.3,0c0-5.8,0-11.5,0-17.3c-5.8,0-11.6,0-17.3,0C37.1,112.6,37.1,118.3,37.1,124z"/>
	<path class="st0" d="M33.2,93.1c0-8.4,0-16.7,0-25c8.4,0,16.7,0,25.1,0c0,8.3,0,16.6,0,25C50,93.1,41.6,93.1,33.2,93.1z M54.4,89.2
		c0-5.8,0-11.6,0-17.3c-5.8,0-11.5,0-17.3,0c0,5.8,0,11.6,0,17.3C42.9,89.2,48.6,89.2,54.4,89.2z"/>
	<path class="st0" d="M33.3,33.1c8.4,0,16.7,0,25,0c0,8.4,0,16.7,0,25.1c-8.3,0-16.6,0-25,0C33.3,49.9,33.3,41.5,33.3,33.1z
		 M37.1,54.3c5.8,0,11.6,0,17.3,0c0-5.8,0-11.5,0-17.3c-5.8,0-11.6,0-17.3,0C37.1,42.8,37.1,48.5,37.1,54.3z"/>
	<path class="st1" d="M148.4,192.9H17.8c-7.8,0-14.1-6.3-14.1-14.1V17.6C3.7,9.8,10,3.5,17.8,3.5h130.6c7.8,0,14.1,6.3,14.1,14.1
		v161.2C162.5,186.6,156.2,192.9,148.4,192.9z"/>
	<line class="st2" x1="70" y1="45.7" x2="128.1" y2="45.7"/>
	<line class="st2" x1="70" y1="80.5" x2="128.1" y2="80.5"/>
	<line class="st2" x1="70" y1="114.5" x2="128.1" y2="114.5"/>
	<line class="st2" x1="70.2" y1="149.2" x2="122.3" y2="149.2"/>
	<path class="st3" d="M156.2,90.6c-33.7,0-61,27.1-61,60.5S174.1,90.6,156.2,90.6z"/>
	<path class="st4" d="M48,54.5c4.4-6.6,8.9-13.1,13.3-19.6c-1.5-1.2-3-2.4-4.6-3.6c-3.3,4.9-6.6,9.8-10,14.7
		c-2.3-1.8-4.5-3.5-6.8-5.3c-1.1,1.6-2.1,3.4-2.9,5.2C40.8,48.8,44.4,51.7,48,54.5z"/>
	<path class="st4" d="M48,89.5c4.4-6.6,8.9-13.1,13.3-19.6c-1.5-1.2-3-2.4-4.6-3.6c-3.3,4.9-6.6,9.8-10,14.7
		c-2.3-1.8-4.5-3.5-6.8-5.3c-1.1,1.6-2.1,3.4-2.9,5.2C40.8,83.8,44.4,86.7,48,89.5z"/>
	<path class="st4" d="M48,124.2c4.4-6.6,8.9-13.1,13.3-19.6c-1.5-1.2-3-2.4-4.6-3.6c-3.3,4.9-6.6,9.8-10,14.7
		c-2.3-1.8-4.5-3.5-6.8-5.3c-1.1,1.6-2.1,3.4-2.9,5.2C40.8,118.5,44.4,121.3,48,124.2z"/>
	<circle class="st0" cx="149.4" cy="149.2" r="46.8"/>
</g>
<g id="Camada_2">
	<g>
		<rect x="138.7" y="136.2" class="st3" width="21.5" height="26.7"/>
		<rect x="138.7" y="166.4" class="st3" width="21.5" height="6.5"/>
		<rect x="138.7" y="176.3" class="st3" width="21.5" height="3.2"/>
		<polygon class="st3" points="132.1,136.2 149.4,118.8 166.8,136.2 		"/>
	</g>
</g>
</svg>
